<svg id="Camada_1" data-name="Camada 1" xmlns="http://www.w3.org/2000/svg" viewBox="0 0 297.64 525.21"><defs><style>.cls-1{fill:none;stroke:#646463;stroke-miterlimit:10;}.cls-2,.cls-4,.cls-6{fill:#23a071;}.cls-3{font-size:12px;}.cls-3,.cls-5,.cls-7{fill:#fff;font-family:OpenSans-Bold, Open Sans;font-weight:700;}.cls-10,.cls-4{opacity:0.9;}.cls-5{font-size:10.09px;}.cls-6,.cls-9{opacity:0.7;}.cls-7{font-size:8.03px;}.cls-10,.cls-8,.cls-9{fill:#f1860d;}</style></defs><title>genealogia hanin fiv-vertical_Prancheta 1</title><path class="cls-1" d="M99.42,64.15h-6A13.26,13.26,0,0,0,80.18,77.4V192.47a13.25,13.25,0,0,0,13.25,13.25h6"/><path class="cls-1" d="M172.33,90.91h-6A13.25,13.25,0,0,1,153.1,77.66v-1"/><path class="cls-1" d="M172.33,37.9h-6A13.25,13.25,0,0,0,153.1,51.15v.5"/><path class="cls-1" d="M172.33,232.22h-6A13.25,13.25,0,0,1,153.1,219v-1"/><path class="cls-1" d="M172.33,179.21h-6a13.25,13.25,0,0,0-13.25,13.25v.5"/><rect class="cls-2" x="35.78" y="119.72" width="244.86" height="29.75" rx="5.75"/><text class="cls-3" transform="translate(95.33 138.99)">GUINCHO TE DE NAV.</text><rect class="cls-4" x="99.42" y="51.65" width="181" height="25.01" rx="5.75"/><text class="cls-5" transform="translate(156.85 67.84)">BITELO DA SS</text><rect class="cls-2" x="99.42" y="193.21" width="181" height="25.01" rx="5.75"/><text class="cls-5" transform="translate(161.71 209.41)">BACANA TE</text><rect class="cls-6" x="171.75" y="26.95" width="109.31" height="19.9" rx="5.75"/><text class="cls-7" transform="translate(193.33 39.83)">LUDY DE GARCIA</text><rect class="cls-6" x="171.75" y="80.78" width="109.31" height="19.9" rx="5.75"/><text class="cls-7" transform="translate(199.19 93.67)">TAREFA DA SS</text><rect class="cls-6" x="171.75" y="168.51" width="109.31" height="19.9" rx="5.75"/><text class="cls-7" transform="translate(190.91 181.4)">GANDHI PO DA NI</text><rect class="cls-6" x="171.75" y="222.35" width="109.31" height="19.9" rx="5.75"/><text class="cls-7" transform="translate(191.86 235.23)">NOVA TE DE NAV.</text><path class="cls-1" d="M171.33,346.93h-6a13.25,13.25,0,0,1-13.25-13.25v-1"/><path class="cls-1" d="M171.33,293.91h-6a13.25,13.25,0,0,0-13.25,13.25v.5"/><path class="cls-1" d="M171.33,488.24h-6A13.25,13.25,0,0,1,152.1,475v-1"/><path class="cls-1" d="M171.33,435.23h-6a13.25,13.25,0,0,0-13.25,13.25v.5"/><path class="cls-1" d="M101.2,320.17h-6A13.25,13.25,0,0,0,82,333.42V448.48a13.25,13.25,0,0,0,13.25,13.25h6"/><rect class="cls-8" x="35.78" y="375.74" width="244.86" height="29.75" rx="5.75"/><text class="cls-3" transform="translate(91.68 395)">HAMINA FIV 3M DA BB</text><rect class="cls-9" x="171.33" y="282.96" width="109.31" height="19.9" rx="5.75"/><text class="cls-7" transform="translate(186.85 295.85)">PAYSANDU DE NAV.</text><rect class="cls-9" x="171.33" y="336.8" width="109.31" height="19.9" rx="5.75"/><text class="cls-7" transform="translate(194.09 349.68)">TAQUIRA DA SM</text><rect class="cls-9" x="171.33" y="424.53" width="109.31" height="19.9" rx="5.75"/><text class="cls-7" transform="translate(188.18 437.41)">BIG BEN DA S. NICE</text><rect class="cls-9" x="171.33" y="478.36" width="109.31" height="19.9" rx="5.75"/><text class="cls-7" transform="translate(207.22 491.25)">HASTA TE</text><rect class="cls-10" x="101.2" y="307.66" width="179.43" height="25.01" rx="5.75"/><text class="cls-5" transform="translate(156.66 323.86)">BASCO DA SM</text><rect class="cls-10" x="101.2" y="449.23" width="179.43" height="25.01" rx="5.75"/><text class="cls-5" transform="translate(142.66 465.42)">HAMINA FIV DA MV</text><path class="cls-1" d="M35.82,134.94h-6a13.25,13.25,0,0,0-13.25,13.25V377.7A13.25,13.25,0,0,0,29.84,391h6"/></svg>