<svg id="Camada_1" data-name="Camada 1" xmlns="http://www.w3.org/2000/svg" viewBox="0 0 595.28 286.9"><defs><style>.cls-1{fill:#f3a110;}.cls-2{fill:none;stroke:#646463;stroke-miterlimit:10;}.cls-3,.cls-6,.cls-8{fill:#23a071;}.cls-10,.cls-11,.cls-4{fill:#f1860d;}.cls-5{font-size:12px;}.cls-5,.cls-7,.cls-9{fill:#fff;font-family:OpenSans-Bold, Open Sans;font-weight:700;}.cls-11,.cls-6{opacity:0.9;}.cls-7{font-size:10.09px;}.cls-10,.cls-8{opacity:0.7;}.cls-9{font-size:8.03px;}</style></defs><title>genealogia carinhosa</title><circle class="cls-1" cx="297.64" cy="143.45" r="15.21"/><path class="cls-2" d="M215.42,73h6a13.25,13.25,0,0,1,13.25,13.25V201.32a13.25,13.25,0,0,1-13.25,13.25h-6"/><path class="cls-2" d="M143.73,99.76h6A13.25,13.25,0,0,0,163,86.51v-1"/><path class="cls-2" d="M143.73,46.75h6A13.25,13.25,0,0,1,163,60v.5"/><path class="cls-2" d="M143.73,241.08h6A13.25,13.25,0,0,0,163,227.83v-1"/><path class="cls-2" d="M143.73,188.06h6A13.25,13.25,0,0,1,163,201.31v.5"/><path class="cls-2" d="M451.55,99.76h-6a13.25,13.25,0,0,1-13.25-13.25v-1"/><path class="cls-2" d="M451.55,46.75h-6A13.25,13.25,0,0,0,432.31,60v.5"/><path class="cls-2" d="M451.55,241.08h-6a13.26,13.26,0,0,1-13.25-13.25v-1"/><path class="cls-2" d="M451.55,188.06h-6a13.26,13.26,0,0,0-13.25,13.25v.5"/><path class="cls-2" d="M381.42,73h-6a13.25,13.25,0,0,0-13.25,13.25V201.32a13.25,13.25,0,0,0,13.25,13.25h6"/><rect class="cls-3" x="34.42" y="128.58" width="244.86" height="29.75" rx="5.75"/><rect class="cls-4" x="316" y="128.58" width="244.86" height="29.75" rx="5.75"/><text class="cls-5" transform="translate(293.64 147.84)">X</text><text class="cls-5" transform="translate(93.98 147.84)">GUINCHO TE DE NAV.</text><text class="cls-5" transform="translate(379.4 147.84)">LABELE DO PARANA</text><rect class="cls-6" x="34.42" y="60.5" width="181" height="25.01" rx="5.75"/><text class="cls-7" transform="translate(91.85 76.7)">BITELO DA SS</text><rect class="cls-3" x="34.42" y="202.06" width="181" height="25.01" rx="5.75"/><text class="cls-7" transform="translate(96.71 218.26)">BACANA TE</text><rect class="cls-8" x="34.42" y="35.8" width="109.31" height="19.9" rx="5.75"/><text class="cls-9" transform="translate(57.34 48.69)">LUDY DE GARCA</text><rect class="cls-8" x="34.42" y="89.64" width="109.31" height="19.9" rx="5.75"/><text class="cls-9" transform="translate(61.86 102.52)">TAREFA DA SS</text><rect class="cls-8" x="34.42" y="177.37" width="109.31" height="19.9" rx="5.75"/><text class="cls-9" transform="translate(53.59 190.25)">GANDHI PO DA NI</text><rect class="cls-8" x="34.42" y="231.2" width="109.31" height="19.9" rx="5.75"/><text class="cls-9" transform="translate(54.53 244.08)">NOVA TE DE NAV.</text><rect class="cls-10" x="451.55" y="35.8" width="109.31" height="19.9" rx="5.75"/><text class="cls-9" transform="translate(474.89 48.69)">FAJARDO DA GB</text><rect class="cls-10" x="451.55" y="89.64" width="109.31" height="19.9" rx="5.75"/><text class="cls-9" transform="translate(461.58 102.52)">COMPORTA DA S. NICE</text><rect class="cls-10" x="451.55" y="177.37" width="109.31" height="19.9" rx="5.75"/><text class="cls-9" transform="translate(470.23 190.25)">ACETIM DE GARCA</text><rect class="cls-10" x="451.55" y="231.2" width="109.31" height="19.9" rx="5.75"/><text class="cls-9" transform="translate(479.34 244.08)">ADAGA DA TP</text><rect class="cls-11" x="381.42" y="60.5" width="179.43" height="25.01" rx="5.75"/><text class="cls-7" transform="translate(423.62 76.7)">BIG BEN DA S. NICE</text><rect class="cls-11" x="381.42" y="202.06" width="179.43" height="25.01" rx="5.75"/><text class="cls-7" transform="translate(438.68 218.26)">CIVICA DA TP</text></svg>