<svg id="Camada_1" data-name="Camada 1" xmlns="http://www.w3.org/2000/svg" viewBox="0 0 297.64 525.21"><defs><style>.cls-1,.cls-8{fill:none;stroke-miterlimit:10;}.cls-1{stroke:#666664;}.cls-2,.cls-4,.cls-6{fill:#f1860f;}.cls-3,.cls-4,.cls-5,.cls-6,.cls-7{isolation:isolate;}.cls-10,.cls-3{font-size:12px;}.cls-10,.cls-12,.cls-14,.cls-15,.cls-3,.cls-5,.cls-7{fill:#fff;font-family:OpenSans-Bold, Open Sans;font-weight:700;}.cls-4{opacity:0.7;}.cls-14,.cls-5{font-size:8.03px;}.cls-6{opacity:0.9;}.cls-7{font-size:10.09px;}.cls-8{stroke:#646463;}.cls-11,.cls-13,.cls-9{fill:#23a071;}.cls-11{opacity:0.9;}.cls-12{font-size:10.09px;}.cls-13{opacity:0.7;}.cls-15{font-size:8.03px;}</style></defs><title>genealogia carinhosa vertical</title><path class="cls-1" d="M171.33,346.92h-6a13.25,13.25,0,0,1-13.25-13.25v-1"/><path class="cls-1" d="M171.33,293.91h-6a13.25,13.25,0,0,0-13.24,13.25v.5"/><path class="cls-1" d="M171.33,488.24h-6A13.25,13.25,0,0,1,152.08,475v-1"/><path class="cls-1" d="M171.33,435.22h-6a13.26,13.26,0,0,0-13.25,13.25v.5"/><path class="cls-1" d="M101.2,320.16h-6A13.25,13.25,0,0,0,82,333.41V448.48A13.25,13.25,0,0,0,95.2,461.73h6"/><rect class="cls-2" x="35.78" y="375.74" width="244.86" height="29.75" rx="5.75"/><text class="cls-3" transform="translate(99.44 395)">LABELE DO PARANA</text><rect class="cls-4" x="171.33" y="282.96" width="109.31" height="19.9" rx="5.75"/><text class="cls-5" transform="translate(194.67 295.85)">FAJARDO DA GB</text><rect class="cls-4" x="171.33" y="336.8" width="109.31" height="19.9" rx="5.75"/><text class="cls-5" transform="translate(181.36 349.68)">COMPORTA DA S. NICE</text><rect class="cls-4" x="171.33" y="424.53" width="109.31" height="19.9" rx="5.75"/><text class="cls-5" transform="translate(190 437.41)">ACETIM DE GARCA</text><rect class="cls-4" x="171.33" y="478.36" width="109.31" height="19.9" rx="5.75"/><text class="cls-5" transform="translate(199.54 491.24)">ADAGA DA TP</text><rect class="cls-6" x="101.2" y="307.66" width="179.43" height="25.01" rx="5.75"/><text class="cls-7" transform="translate(143.4 323.86)">BIG BEN DA S. NICE</text><rect class="cls-6" x="101.2" y="449.22" width="179.43" height="25.01" rx="5.75"/><text class="cls-7" transform="translate(158.32 465.42)">CIVICA DA TP</text><path class="cls-8" d="M99.42,64.15h-6A13.26,13.26,0,0,0,80.18,77.4V192.47a13.25,13.25,0,0,0,13.25,13.25h6"/><path class="cls-8" d="M172.33,90.91h-6A13.25,13.25,0,0,1,153.1,77.66v-1"/><path class="cls-8" d="M172.33,37.9h-6A13.25,13.25,0,0,0,153.1,51.15v.5"/><path class="cls-8" d="M172.33,232.22h-6A13.25,13.25,0,0,1,153.1,219v-1"/><path class="cls-8" d="M172.33,179.21h-6a13.25,13.25,0,0,0-13.25,13.25v.5"/><rect class="cls-9" x="35.78" y="119.72" width="244.86" height="29.75" rx="5.75"/><text class="cls-10" transform="translate(95.33 138.99)">GUINCHO TE DE NAV.</text><rect class="cls-11" x="99.42" y="51.65" width="181" height="25.01" rx="5.75"/><text class="cls-12" transform="translate(156.85 67.84)">BITELO DA SS</text><rect class="cls-9" x="99.42" y="193.21" width="181" height="25.01" rx="5.75"/><text class="cls-12" transform="translate(161.71 209.41)">BACANA TE</text><rect class="cls-13" x="171.75" y="26.95" width="109.31" height="19.9" rx="5.75"/><text class="cls-14" transform="translate(194.66 39.84)">LUDY DE GARCA</text><rect class="cls-13" x="171.75" y="80.78" width="109.31" height="19.9" rx="5.75"/><text class="cls-15" transform="translate(199.19 93.67)">TAREFA DA SS</text><rect class="cls-13" x="171.75" y="168.51" width="109.31" height="19.9" rx="5.75"/><text class="cls-15" transform="translate(190.91 181.4)">GANDHI PO DA NI</text><rect class="cls-13" x="171.75" y="222.35" width="109.31" height="19.9" rx="5.75"/><text class="cls-15" transform="translate(191.86 235.23)">NOVA TE DE NAV.</text><path class="cls-8" d="M35.82,134.94h-6a13.25,13.25,0,0,0-13.25,13.25V377.7A13.25,13.25,0,0,0,29.84,391h6"/></svg>