<?xml version="1.0" encoding="utf-8"?>
<!-- Generator: Adobe Illustrator 23.1.0, SVG Export Plug-In . SVG Version: 6.00 Build 0)  -->
<svg version="1.1" id="Camada_1" xmlns="http://www.w3.org/2000/svg" xmlns:xlink="http://www.w3.org/1999/xlink" x="0px" y="0px"
	 viewBox="0 0 144 144" style="enable-background:new 0 0 144 144;" xml:space="preserve">
<style type="text/css">
	.st0{fill:url(#SVGID_1_);}
	.st1{fill:url(#SVGID_2_);}
	.st2{fill:url(#SVGID_3_);}
	.st3{fill:url(#SVGID_4_);}
	.st4{fill:url(#SVGID_5_);}
</style>
<g>
	<linearGradient id="SVGID_1_" gradientUnits="userSpaceOnUse" x1="23.0354" y1="34.773" x2="24.2979" y2="132.197">
		<stop  offset="0" style="stop-color:#0A352C"/>
		<stop  offset="1" style="stop-color:#0A7469"/>
	</linearGradient>
	<path class="st0" d="M22.4,98.9h-6.6L22,82.5h25.6L45.1,76H24.4l10.4-27.5L30.9,38h-8.2c-0.8,0-1.2,0.4-1.2,1.1V44
		c0,0.8,0.4,1.1,1.2,1.1h5.1L7.5,98.9H1.1C0.4,98.9,0,99.3,0,100v4.8c0,0.8,0.4,1.1,1.1,1.1h21.3c0.8,0,1.1-0.4,1.1-1.1V100
		C23.6,99.3,23.2,98.9,22.4,98.9z"/>
	
		<linearGradient id="SVGID_2_" gradientUnits="userSpaceOnUse" x1="215.661" y1="34.1914" x2="269.1981" y2="113.0882" gradientTransform="matrix(1 0 0.3756 1 -221.7843 0)">
		<stop  offset="0" style="stop-color:#0A7469"/>
		<stop  offset="1" style="stop-color:#27AB69"/>
	</linearGradient>
	<path class="st1" d="M62.3,106h-5.9c-0.4,0-0.8-0.3-1-0.7L30.1,38h5.8c1.5,0,2.8,0.9,3.3,2.3l24.1,64.2C63.5,105.2,63,106,62.3,106
		z"/>
	
		<linearGradient id="SVGID_3_" gradientUnits="userSpaceOnUse" x1="229.398" y1="34.7243" x2="282.4324" y2="112.8804" gradientTransform="matrix(1 0 0.3756 1 -221.7843 0)">
		<stop  offset="0" style="stop-color:#0A7469"/>
		<stop  offset="1" style="stop-color:#27AB69"/>
	</linearGradient>
	<path class="st2" d="M75.5,106h-5.9c-0.4,0-0.8-0.3-1-0.7l-24.8-66C43.6,38.7,44,38,44.7,38h5c1.1,0,2.2,0.7,2.6,1.8l24.3,64.8
		C76.8,105.2,76.3,106,75.5,106z"/>
	
		<linearGradient id="SVGID_4_" gradientUnits="userSpaceOnUse" x1="242.1371" y1="34.7243" x2="295.1715" y2="112.8804" gradientTransform="matrix(1 0 0.3756 1 -221.7843 0)">
		<stop  offset="0" style="stop-color:#0A7469"/>
		<stop  offset="1" style="stop-color:#27AB69"/>
	</linearGradient>
	<path class="st3" d="M88.3,106h-5.9c-0.4,0-0.8-0.3-1-0.7l-24.8-66c-0.2-0.6,0.2-1.3,0.9-1.3h5c1.1,0,2.2,0.7,2.6,1.8l24.3,64.8
		C89.5,105.2,89,106,88.3,106z"/>
	<linearGradient id="SVGID_5_" gradientUnits="userSpaceOnUse" x1="97.9977" y1="26.1808" x2="125.2123" y2="99.3071">
		<stop  offset="0" style="stop-color:#D86813"/>
		<stop  offset="1" style="stop-color:#F49F09"/>
	</linearGradient>
	<path class="st4" d="M116.9,78.2c-1.9,0.6-2.8-0.1-3.1,0.3c-0.3,0.4-3.8,2.9-4,8.9c-0.2,6-5.3,12.9-10.1,14.8c-0.3,0.1-1,0.2-2,0.2
		c-1.1,0-1.8,1.1-1.4,2.1l0,0c0.3,0.9,1.2,1.5,2.1,1.5H110c18.8,0,34-15.2,34-34v0c0-18.8-15.2-34-34-34H74.5
		c-1.6,0-2.7,1.6-2.1,3.1l4.8,12.8c1.1,3,5.3,3.1,6.5,0.2c0-0.1,0-0.1,0.1-0.2c1.4-3.6,3.4-4.8,7.7-4.1c2.9,0.5,6.4,2.7,8.4,4.2
		c1.1,0.8,2.5,1,3.7,0.6c3.8-1.2,11.7-3.8,12.1-4.4c0,0,0.4-0.5-0.1-1.8c-0.5-1.3-0.3-1.7-0.2-1.7c0.1,0,1.9,1.2,1.9,1.2
		s-0.4-3.1,0.3-3.3c0.7-0.2,1.6,3,3.1,3.8c0.6,0.3,0.4,1.3,0.4,1.3s2.7,1.9,2.7,2.1c0,0.3,0.6-0.3,1.2,0.1c0.5,0.4,0.9,1.2,0.9,3.3
		c0.2,0.8,0.5,1.3,0.8,1.5c0.2,0.2,0.4,0.9-0.3,0.9c0,0,2.5,7.5,4.3,9c1.8,1.6,2.1,2.2,1.9,2.8c-0.2,0.6-1.7,3.3-3.6,3.4
		c-1.9,0.1-2.5-1.6-3-1.6c-0.5,0-1.7,1-2.9,0.3C123,71.6,121,77,116.9,78.2z"/>
</g>
</svg>
